<svg id="TE_Icon" data-name="TE Icon" xmlns="http://www.w3.org/2000/svg" width="38.775" height="39.261" viewBox="0 0 38.775 39.261">
  <path id="Path_2107" data-name="Path 2107" d="M1095.371,259.987c.627,0,.741-.322.252-.716l-5.493-4.428a1.582,1.582,0,0,0-1.812-.048l-6.275,4.525c-.509.367-.412.667.215.667Z" transform="translate(-1068.777 -254.533)" fill="#ed453f"/>
  <path id="Path_2108" data-name="Path 2108" d="M1105.33,264.486c-.488-.393-.888-.2-.888.424v4.769a2.447,2.447,0,0,1-.936,1.79l-12.537,8.688a1.854,1.854,0,0,1-1.9.033l-12.132-7.79a2.334,2.334,0,0,1-.96-1.757v-5.988c0-.627-.415-.84-.925-.473l-3.76,2.713a2.51,2.51,0,0,0-.925,1.807v22.625a1.144,1.144,0,0,0,1.14,1.14h13.81a1.144,1.144,0,0,0,1.14-1.14v-3.65a1.144,1.144,0,0,1,1.14-1.14h3.536a1.144,1.144,0,0,1,1.14,1.14v3.65a1.143,1.143,0,0,0,1.14,1.14H1108a1.144,1.144,0,0,0,1.14-1.14V268.7a2.709,2.709,0,0,0-.887-1.856Z" transform="translate(-1070.369 -253.205)" fill="#ed453f"/>
  <path id="Path_2109" data-name="Path 2109" d="M1079.9,266.794l8.209,9.419,15.347-18.838-15.8,12.137Z" transform="translate(-1069.032 -254.135)" fill="#ed453f"/>
</svg>
