<svg xmlns="http://www.w3.org/2000/svg" width="22.931" height="25.764" viewBox="0 0 22.931 25.764">
  <path id="Exclusion_1" data-name="Exclusion 1" d="M-3545.534-5277.236A11.477,11.477,0,0,1-3557-5288.7a11.468,11.468,0,0,1,7.7-10.817.964.964,0,0,1,.322-.056.975.975,0,0,1,.92.656.972.972,0,0,1-.043.742.972.972,0,0,1-.559.5,9.522,9.522,0,0,0-6.387,8.979,9.526,9.526,0,0,0,9.517,9.514,9.526,9.526,0,0,0,9.515-9.514,9.524,9.524,0,0,0-6.388-8.979.966.966,0,0,1-.557-.5.979.979,0,0,1-.042-.745.972.972,0,0,1,.919-.651.951.951,0,0,1,.319.054,11.468,11.468,0,0,1,7.7,10.817A11.476,11.476,0,0,1-3545.534-5277.236Zm0-15.784a.976.976,0,0,1-.976-.974v-8.031a.977.977,0,0,1,.976-.975.975.975,0,0,1,.974.975v8.031A.974.974,0,0,1-3545.534-5293.021Z" transform="translate(3557.001 5303)" fill="#756982"/>
</svg>
